<svg width="211" height="99" viewBox="0 0 211 99" fill="none" xmlns="http://www.w3.org/2000/svg">
<path fill-rule="evenodd" clip-rule="evenodd" d="M13.8947 75.5789C18.1754 77.9649 22.807 79.1579 27.7895 79.1579C33.1228 79.1579 37.3684 78.1053 40.5263 76C41.6555 75.2635 42.673 74.3855 43.5789 73.3658V78.1053H66.2105V0H42.4211V24.4828C41.7342 23.832 40.9974 23.25 40.2105 22.7368C36.9825 20.5614 32.8421 19.4737 27.7895 19.4737C22.807 19.4737 18.1754 20.6667 13.8947 23.0526C9.68421 25.4386 6.31579 28.8772 3.78947 33.3684C1.26316 37.7895 0 43.0878 0 49.2632C0 55.4385 1.26316 60.772 3.78947 65.2632C6.31579 69.6842 9.68421 73.1228 13.8947 75.5789ZM38.2105 59.3684C36.807 60.2105 35.228 60.6316 33.4737 60.6316C31.7193 60.6316 30.1404 60.2105 28.7368 59.3684C27.3333 58.5263 26.2105 57.2632 25.3684 55.5789C24.5263 53.8246 24.1053 51.7193 24.1053 49.2632C24.1053 46.7368 24.5263 44.6667 25.3684 43.0526C26.2105 41.3684 27.3333 40.1053 28.7368 39.2632C30.1404 38.4211 31.7193 38 33.4737 38C35.228 38 36.807 38.4211 38.2105 39.2632C39.6141 40.1053 40.7368 41.3684 41.5789 43.0526C42.4211 44.6667 42.8421 46.7368 42.8421 49.2632C42.8421 51.7193 42.4211 53.8246 41.5789 55.5789C40.7368 57.2632 39.6141 58.5263 38.2105 59.3684ZM69.903 20.5263L93.0608 78.1053H117.692L140.85 20.5263H118.324L105.941 51.4133L94.324 20.5263H69.903ZM170.488 76C173.786 78.1053 177.926 79.1579 182.909 79.1579C187.962 79.1579 192.593 77.9649 196.804 75.5789C201.014 73.193 204.383 69.7895 206.909 65.3684C209.436 60.8772 210.699 55.5438 210.699 49.3684C210.699 43.193 209.436 37.8947 206.909 33.4737C204.383 28.9825 201.014 25.5438 196.804 23.1579C192.593 20.7017 187.962 19.4737 182.909 19.4737C177.646 19.4737 173.4 20.5263 170.172 22.6316C169.047 23.3646 168.03 24.2379 167.12 25.2514V20.5263H144.488V98.5263H168.278V74.2153C168.964 74.8747 169.701 75.4697 170.488 76ZM180.493 38.5593L180.05 35.8089C180.016 35.5926 179.924 35.3937 179.788 35.2384C179.651 35.0832 179.478 34.9789 179.289 34.9397L179.209 34.9228C177.675 34.6049 176.059 34.6049 174.525 34.9228L174.445 34.9397C174.257 34.9789 174.083 35.0832 173.946 35.2384C173.811 35.3937 173.72 35.5926 173.684 35.8089L173.218 38.6941C172.161 39.1543 171.175 39.8089 170.3 40.6322L167.887 39.6479C167.707 39.5747 167.511 39.5662 167.326 39.6236C167.141 39.6811 166.976 39.8016 166.851 39.9692L166.799 40.0403C165.779 41.4189 164.984 42.9964 164.45 44.6978L164.424 44.7858C164.291 45.2086 164.4 45.6821 164.699 45.9763L166.651 47.8874C166.561 48.5233 166.516 49.1726 166.516 49.8153C166.516 50.4647 166.561 51.1141 166.651 51.7433L164.704 53.6542C164.559 53.7974 164.454 53.9879 164.405 54.2005C164.357 54.4132 164.364 54.6379 164.43 54.8449L164.457 54.9328C164.991 56.6341 165.778 58.2068 166.805 59.5903L166.858 59.6613C166.982 59.8286 167.147 59.9488 167.332 60.0062C167.517 60.0635 167.713 60.0553 167.893 59.9826L170.307 58.9984C171.186 59.8271 172.164 60.4832 173.224 60.9364L173.689 63.8216C173.725 64.0379 173.817 64.237 173.953 64.3922C174.088 64.5475 174.262 64.6516 174.451 64.6909L174.53 64.7078C176.08 65.0274 177.666 65.0274 179.216 64.7078L179.295 64.6909C179.484 64.6516 179.658 64.5475 179.793 64.3922C179.93 64.237 180.021 64.0379 180.057 63.8216L180.52 60.95C181.587 60.49 182.572 59.8372 183.458 59.0051L185.853 59.9826C186.034 60.0559 186.229 60.0643 186.414 60.007C186.599 59.9496 186.764 59.8291 186.888 59.6613L186.942 59.5903C187.968 58.2001 188.755 56.6341 189.289 54.9328L189.316 54.8449C189.443 54.4254 189.334 53.9553 189.036 53.661L187.107 51.7703C187.199 51.1276 187.245 50.4714 187.245 49.8187C187.245 49.1659 187.199 48.5063 187.107 47.8671L189.036 45.9763C189.182 45.8333 189.286 45.6428 189.336 45.4301C189.384 45.2174 189.375 44.9926 189.311 44.7858L189.284 44.6978C188.753 42.9954 187.957 41.4175 186.936 40.0403L186.883 39.9692C186.758 39.802 186.593 39.6818 186.408 39.6245C186.224 39.5671 186.028 39.5753 185.847 39.6479L183.599 40.5653C183.104 40.0551 182.558 39.6212 181.962 39.2632C181.492 38.9814 181.003 38.7468 180.493 38.5593Z" fill="white"/>
<path d="M11.0368 96.1539C10.2938 96.1539 9.62321 95.9898 9.02496 95.6618C8.43637 95.324 7.97321 94.8609 7.63548 94.2723C7.29776 93.6838 7.12891 92.9891 7.12891 92.1881C7.12891 91.3872 7.29776 90.6925 7.63548 90.1039C7.97321 89.5154 8.43637 89.0569 9.02496 88.7289C9.62321 88.4009 10.2938 88.2368 11.0368 88.2368C11.6833 88.2368 12.2622 88.3815 12.7736 88.671C13.2851 88.9509 13.6904 89.3802 13.9894 89.9592C14.2885 90.5381 14.4381 91.2812 14.4381 92.1881C14.4381 93.0855 14.2934 93.8285 14.0039 94.4171C13.7144 94.996 13.314 95.4302 12.8026 95.7197C12.2912 96.0092 11.7026 96.1539 11.0368 96.1539ZM11.2539 94.6052C11.6881 94.6052 12.0741 94.5088 12.4118 94.3158C12.7592 94.1227 13.0342 93.843 13.2368 93.4763C13.449 93.1096 13.5552 92.6802 13.5552 92.1881C13.5552 91.6864 13.449 91.2569 13.2368 90.9C13.0342 90.5333 12.7592 90.2535 12.4118 90.0605C12.0741 89.8675 11.6881 89.771 11.2539 89.771C10.8197 89.771 10.4289 89.8675 10.0815 90.0605C9.74381 90.2535 9.46881 90.5333 9.25654 90.9C9.05391 91.2569 8.95259 91.6864 8.95259 92.1881C8.95259 92.6802 9.05391 93.1096 9.25654 93.4763C9.46881 93.843 9.74381 94.1227 10.0815 94.3158C10.4289 94.5088 10.8197 94.6052 11.2539 94.6052ZM13.5986 96.0526V94.2289L13.671 92.1737L13.5263 90.1184V85.3131H15.321V96.0526H13.5986ZM21.3352 96.1539C20.4764 96.1539 19.7238 95.9851 19.0773 95.6473C18.4405 95.3 17.9435 94.8272 17.5865 94.2289C17.2392 93.6306 17.0655 92.9504 17.0655 92.1881C17.0655 91.4162 17.2343 90.7359 17.5721 90.1473C17.9194 89.549 18.3922 89.0812 18.9905 88.7434C19.5984 88.4056 20.2882 88.2368 21.0602 88.2368C21.8129 88.2368 22.4834 88.4009 23.0721 88.7289C23.6606 89.0569 24.1238 89.5201 24.4615 90.1184C24.7992 90.7167 24.9681 91.421 24.9681 92.2315C24.9681 92.3088 24.9632 92.3956 24.9536 92.4921C24.9536 92.5885 24.9488 92.6802 24.9392 92.7671H18.4984V91.5658H23.9839L23.2747 91.9421C23.2843 91.4983 23.1926 91.1075 22.9997 90.7697C22.8067 90.4319 22.5413 90.1667 22.2036 89.9736C21.8755 89.7806 21.4944 89.6842 21.0602 89.6842C20.6163 89.6842 20.2255 89.7806 19.8879 89.9736C19.5597 90.1667 19.2992 90.4368 19.1063 90.7842C18.9229 91.1219 18.8313 91.5223 18.8313 91.9855V92.275C18.8313 92.7381 18.9373 93.1483 19.1497 93.5052C19.3619 93.8622 19.661 94.1372 20.0471 94.3302C20.433 94.5233 20.8768 94.6197 21.3786 94.6197C21.8129 94.6197 22.2036 94.5522 22.551 94.4171C22.8984 94.2819 23.2071 94.0697 23.4773 93.7802L24.4471 94.8947C24.0997 95.3 23.6606 95.6135 23.13 95.8355C22.6089 96.0477 22.0106 96.1539 21.3352 96.1539ZM19.801 87.2671L21.755 85.2842H23.8826L21.3642 87.2671H19.801ZM30.9901 96.1539C30.363 96.1539 29.7888 96.0092 29.2677 95.7197C28.7564 95.4302 28.3463 94.996 28.0375 94.4171C27.7384 93.8285 27.5888 93.0855 27.5888 92.1881C27.5888 91.2812 27.7335 90.5381 28.023 89.9592C28.3222 89.3802 28.7275 88.9509 29.2388 88.671C29.7502 88.3815 30.334 88.2368 30.9901 88.2368C31.7525 88.2368 32.423 88.4009 33.0019 88.7289C33.5906 89.0569 34.0538 89.5154 34.3914 90.1039C34.7388 90.6925 34.9125 91.3872 34.9125 92.1881C34.9125 92.9891 34.7388 93.6885 34.3914 94.2868C34.0538 94.8754 33.5906 95.3338 33.0019 95.6618C32.423 95.9898 31.7525 96.1539 30.9901 96.1539ZM26.7059 98.8605V88.3237H28.4282V90.1473L28.3704 92.2026L28.5151 94.2579V98.8605H26.7059ZM30.7875 94.6052C31.2217 94.6052 31.6077 94.5088 31.9454 94.3158C32.2927 94.1227 32.5677 93.843 32.7704 93.4763C32.973 93.1096 33.0743 92.6802 33.0743 92.1881C33.0743 91.6864 32.973 91.2569 32.7704 90.9C32.5677 90.5333 32.2927 90.2535 31.9454 90.0605C31.6077 89.8675 31.2217 89.771 30.7875 89.771C30.3532 89.771 29.9625 89.8675 29.6151 90.0605C29.2677 90.2535 28.9927 90.5333 28.7901 90.9C28.5875 91.2569 28.4861 91.6864 28.4861 92.1881C28.4861 92.6802 28.5875 93.1096 28.7901 93.4763C28.9927 93.843 29.2677 94.1227 29.6151 94.3158C29.9625 94.5088 30.3532 94.6052 30.7875 94.6052ZM40.1019 96.1539C39.3108 96.1539 38.6064 95.9851 37.9888 95.6473C37.3713 95.3 36.884 94.8272 36.5269 94.2289C36.17 93.6306 35.9914 92.9504 35.9914 92.1881C35.9914 91.4162 36.17 90.7359 36.5269 90.1473C36.884 89.549 37.3713 89.0812 37.9888 88.7434C38.6064 88.4056 39.3108 88.2368 40.1019 88.2368C40.9029 88.2368 41.6121 88.4056 42.2296 88.7434C42.8568 89.0812 43.344 89.5443 43.6914 90.1329C44.0485 90.7214 44.2269 91.4066 44.2269 92.1881C44.2269 92.9504 44.0485 93.6306 43.6914 94.2289C43.344 94.8272 42.8568 95.3 42.2296 95.6473C41.6121 95.9851 40.9029 96.1539 40.1019 96.1539ZM40.1019 94.6052C40.5459 94.6052 40.9414 94.5088 41.2888 94.3158C41.6361 94.1227 41.9064 93.843 42.0993 93.4763C42.3019 93.1096 42.4033 92.6802 42.4033 92.1881C42.4033 91.6864 42.3019 91.2569 42.0993 90.9C41.9064 90.5333 41.6361 90.2535 41.2888 90.0605C40.9414 89.8675 40.5506 89.771 40.1164 89.771C39.6726 89.771 39.2769 89.8675 38.9296 90.0605C38.5919 90.2535 38.3217 90.5333 38.119 90.9C37.9164 91.2569 37.8151 91.6864 37.8151 92.1881C37.8151 92.6802 37.9164 93.1096 38.119 93.4763C38.3217 93.843 38.5919 94.1227 38.9296 94.3158C39.2769 94.5088 39.6677 94.6052 40.1019 94.6052ZM37.323 87.2671L39.2625 85.2842H40.9125L42.8519 87.2671H41.3611L39.3927 85.6026H40.7822L38.8138 87.2671H37.323ZM48.8663 96.1539C48.0172 96.1539 47.361 95.9368 46.8979 95.5026C46.4347 95.0588 46.2031 94.4075 46.2031 93.5487V86.6158H48.0123V93.5052C48.0123 93.8719 48.104 94.1565 48.2873 94.3592C48.4804 94.5618 48.7456 94.6631 49.0834 94.6631C49.4886 94.6631 49.8264 94.5569 50.0965 94.3447L50.6031 95.6329C50.3909 95.8065 50.1304 95.9368 49.8215 96.0236C49.5127 96.1105 49.1943 96.1539 48.8663 96.1539ZM44.9294 89.8289V88.3815H50.0821V89.8289H44.9294ZM51.5593 92.7815V91.2763H55.5396V92.7815H51.5593ZM59.3623 96.0526L56.0479 88.3237H57.9294L60.7808 95.1408H59.8544L62.8071 88.3237H64.5439L61.2294 96.0526H59.3623ZM69.0955 96.1539C68.2367 96.1539 67.484 95.9851 66.8376 95.6473C66.2007 95.3 65.7038 94.8272 65.3468 94.2289C64.9994 93.6306 64.8258 92.9504 64.8258 92.1881C64.8258 91.4162 64.9946 90.7359 65.3323 90.1473C65.6797 89.549 66.1525 89.0812 66.7507 88.7434C67.3586 88.4056 68.0485 88.2368 68.8205 88.2368C69.5731 88.2368 70.2438 88.4009 70.8323 88.7289C71.4209 89.0569 71.884 89.5201 72.2218 90.1184C72.5596 90.7167 72.7284 91.421 72.7284 92.2315C72.7284 92.3088 72.7235 92.3956 72.7139 92.4921C72.7139 92.5885 72.709 92.6802 72.6994 92.7671H66.2586V91.5658H71.7442L71.035 91.9421C71.0446 91.4983 70.953 91.1075 70.76 90.7697C70.5669 90.4319 70.3017 90.1667 69.9639 89.9736C69.6359 89.7806 69.2547 89.6842 68.8205 89.6842C68.3767 89.6842 67.9859 89.7806 67.6481 89.9736C67.3201 90.1667 67.0596 90.4368 66.8665 90.7842C66.6832 91.1219 66.5915 91.5223 66.5915 91.9855V92.275C66.5915 92.7381 66.6977 93.1483 66.91 93.5052C67.1222 93.8622 67.4214 94.1372 67.8073 94.3302C68.1932 94.5233 68.6372 94.6197 69.1389 94.6197C69.5731 94.6197 69.9639 94.5522 70.3113 94.4171C70.6586 94.2819 70.9675 94.0697 71.2376 93.7802L72.2073 94.8947C71.86 95.3 71.4209 95.6135 70.8902 95.8355C70.3692 96.0477 69.7709 96.1539 69.0955 96.1539ZM78.8518 88.2368C79.4693 88.2368 80.0193 88.3575 80.5018 88.5986C80.9939 88.8398 81.3798 89.2114 81.6597 89.7131C81.9394 90.2052 82.0794 90.8421 82.0794 91.6237V96.0526H80.2702V91.8552C80.2702 91.1701 80.1061 90.6588 79.7781 90.321C79.4597 89.9833 79.011 89.8144 78.4321 89.8144C78.0075 89.8144 77.6311 89.9013 77.3031 90.075C76.975 90.2487 76.7193 90.5092 76.536 90.8565C76.3623 91.1943 76.2755 91.6236 76.2755 92.1447V96.0526H74.4663V88.3237H76.1886V90.4079L75.8847 89.771C76.1548 89.2789 76.5456 88.9026 77.0571 88.6421C77.5781 88.3719 78.1763 88.2368 78.8518 88.2368ZM87.2838 96.1539C86.4346 96.1539 85.7785 95.9368 85.3154 95.5026C84.8522 95.0588 84.6206 94.4075 84.6206 93.5487V86.6158H86.4298V93.5052C86.4298 93.8719 86.5214 94.1565 86.7048 94.3592C86.8977 94.5618 87.1631 94.6631 87.5009 94.6631C87.9061 94.6631 88.2438 94.5569 88.514 94.3447L89.0206 95.6329C88.8082 95.8065 88.5477 95.9368 88.239 96.0236C87.9302 96.1105 87.6118 96.1539 87.2838 96.1539ZM83.3469 89.8289V88.3815H88.4996V89.8289H83.3469ZM93.8873 96.1539C93.0285 96.1539 92.2759 95.9851 91.6294 95.6473C90.9926 95.3 90.4956 94.8272 90.1386 94.2289C89.7913 93.6306 89.6176 92.9504 89.6176 92.1881C89.6176 91.4162 89.7864 90.7359 90.1242 90.1473C90.4715 89.549 90.9443 89.0812 91.5426 88.7434C92.1505 88.4056 92.8404 88.2368 93.6123 88.2368C94.365 88.2368 95.0356 88.4009 95.6242 88.7289C96.2127 89.0569 96.6759 89.5201 97.0136 90.1184C97.3514 90.7167 97.5202 91.421 97.5202 92.2315C97.5202 92.3088 97.5154 92.3956 97.5057 92.4921C97.5057 92.5885 97.5009 92.6802 97.4913 92.7671H91.0505V91.5658H96.536L95.8268 91.9421C95.8364 91.4983 95.7448 91.1075 95.5518 90.7697C95.3588 90.4319 95.0935 90.1667 94.7557 89.9736C94.4277 89.7806 94.0465 89.6842 93.6123 89.6842C93.1685 89.6842 92.7777 89.7806 92.44 89.9736C92.1119 90.1667 91.8514 90.4368 91.6584 90.7842C91.4751 91.1219 91.3834 91.5223 91.3834 91.9855V92.275C91.3834 92.7381 91.4896 93.1483 91.7018 93.5052C91.914 93.8622 92.2132 94.1372 92.5992 94.3302C92.9851 94.5233 93.429 94.6197 93.9307 94.6197C94.365 94.6197 94.7557 94.5522 95.1031 94.4171C95.4505 94.2819 95.7593 94.0697 96.0294 93.7802L96.9992 94.8947C96.6518 95.3 96.2127 95.6135 95.6821 95.8355C95.161 96.0477 94.5627 96.1539 93.8873 96.1539ZM107.542 96.1539C106.915 96.1539 106.341 96.0092 105.82 95.7197C105.309 95.4302 104.899 94.996 104.59 94.4171C104.291 93.8285 104.141 93.0855 104.141 92.1881C104.141 91.2812 104.286 90.5381 104.575 89.9592C104.874 89.3802 105.28 88.9509 105.791 88.671C106.302 88.3815 106.886 88.2368 107.542 88.2368C108.305 88.2368 108.975 88.4009 109.554 88.7289C110.143 89.0569 110.606 89.5154 110.944 90.1039C111.291 90.6925 111.465 91.3872 111.465 92.1881C111.465 92.9891 111.291 93.6885 110.944 94.2868C110.606 94.8754 110.143 95.3338 109.554 95.6618C108.975 95.9898 108.305 96.1539 107.542 96.1539ZM103.258 98.8605V88.3237H104.98V90.1473L104.923 92.2026L105.067 94.2579V98.8605H103.258ZM107.34 94.6052C107.774 94.6052 108.16 94.5088 108.498 94.3158C108.845 94.1227 109.12 93.843 109.323 93.4763C109.525 93.1096 109.627 92.6802 109.627 92.1881C109.627 91.6864 109.525 91.2569 109.323 90.9C109.12 90.5333 108.845 90.2535 108.498 90.0605C108.16 89.8675 107.774 89.771 107.34 89.771C106.905 89.771 106.515 89.8675 106.167 90.0605C105.82 90.2535 105.545 90.5333 105.342 90.9C105.14 91.2569 105.038 91.6864 105.038 92.1881C105.038 92.6802 105.14 93.1096 105.342 93.4763C105.545 93.843 105.82 94.1227 106.167 94.3158C106.515 94.5088 106.905 94.6052 107.34 94.6052ZM113.18 96.0526V88.3237H114.903V90.4513L114.7 89.8289C114.932 89.3079 115.294 88.9122 115.786 88.6421C116.288 88.3719 116.91 88.2368 117.653 88.2368V89.9592C117.576 89.9398 117.503 89.9302 117.436 89.9302C117.368 89.9206 117.301 89.9158 117.233 89.9158C116.548 89.9158 116.003 90.1184 115.598 90.5236C115.192 90.9193 114.99 91.5127 114.99 92.3039V96.0526H113.18ZM122.591 96.1539C121.799 96.1539 121.095 95.9851 120.478 95.6473C119.86 95.3 119.373 94.8272 119.016 94.2289C118.659 93.6306 118.48 92.9504 118.48 92.1881C118.48 91.4162 118.659 90.7359 119.016 90.1473C119.373 89.549 119.86 89.0812 120.478 88.7434C121.095 88.4056 121.799 88.2368 122.591 88.2368C123.392 88.2368 124.101 88.4056 124.718 88.7434C125.345 89.0812 125.833 89.5443 126.18 90.1329C126.537 90.7214 126.716 91.4066 126.716 92.1881C126.716 92.9504 126.537 93.6306 126.18 94.2289C125.833 94.8272 125.345 95.3 124.718 95.6473C124.101 95.9851 123.392 96.1539 122.591 96.1539ZM122.591 94.6052C123.035 94.6052 123.43 94.5088 123.778 94.3158C124.125 94.1227 124.395 93.843 124.588 93.4763C124.791 93.1096 124.892 92.6802 124.892 92.1881C124.892 91.6864 124.791 91.2569 124.588 90.9C124.395 90.5333 124.125 90.2535 123.778 90.0605C123.43 89.8675 123.039 89.771 122.605 89.771C122.161 89.771 121.766 89.8675 121.418 90.0605C121.081 90.2535 120.81 90.5333 120.608 90.9C120.405 91.2569 120.304 91.6864 120.304 92.1881C120.304 92.6802 120.405 93.1096 120.608 93.4763C120.81 93.843 121.081 94.1227 121.418 94.3158C121.766 94.5088 122.157 94.6052 122.591 94.6052Z" fill="white"/>
</svg>
